<svg xmlns="http://www.w3.org/2000/svg" width="96" height="96" viewBox="0 0 96 96" fill="none">
  <defs>
    <linearGradient id="g1" x1="12" y1="12" x2="84" y2="84" gradientUnits="userSpaceOnUse">
      <stop stop-color="#6EE7FF"/>
      <stop offset="1" stop-color="#7C6BFF"/>
    </linearGradient>
    <linearGradient id="g2" x1="20" y1="76" x2="76" y2="20" gradientUnits="userSpaceOnUse">
      <stop stop-color="#FF69B4"/>
      <stop offset="1" stop-color="#7C6BFF"/>
    </linearGradient>
  </defs>
  <rect x="6" y="6" width="84" height="84" rx="20" fill="#111729" stroke="#2a3560"/>
  <path d="M24 60c8-2 14-10 20-18s12-16 22-16c6 0 10 4 10 10 0 12-12 22-24 22-8 0-14-4-16-10" stroke="url(#g1)" stroke-width="6" stroke-linecap="round"/>
  <path d="M28 72c6 0 12-4 16-8 8-8 10-12 18-12 4 0 6 2 6 6 0 8-8 14-16 14-6 0-10-2-12-6" stroke="url(#g2)" stroke-width="6" stroke-linecap="round"/>
  <circle cx="34" cy="34" r="5" fill="#6EE7FF"/>
  <circle cx="62" cy="26" r="3" fill="#FF69B4"/>
  <circle cx="70" cy="60" r="3" fill="#7C6BFF"/>
  <title>Fun Run</title>
</svg>


